<svg width="330" height="330" viewBox="0 0 330 330" fill="none" xmlns="http://www.w3.org/2000/svg">
<rect width="330" height="330" rx="165" fill="#212529"/>
<path d="M57.711 136.571C48.8896 136.571 41.7667 129.694 41.7667 121.177C41.7667 120.172 41.8762 119.22 42.0954 118.215C44.9994 107.105 67.4092 35 164.5 35C261.591 35 284.001 107.105 286.905 118.215C287.179 119.22 287.233 120.172 287.233 121.177C287.233 129.694 280.11 136.571 271.289 136.571H57.711ZM103.133 85.7857C103.133 83.5408 102.21 81.3879 100.566 79.8006C98.9216 78.2132 96.6917 77.3214 94.3667 77.3214C92.0416 77.3214 89.8118 78.2132 88.1677 79.8006C86.5236 81.3879 85.6 83.5408 85.6 85.7857C85.6 88.0306 86.5236 90.1835 88.1677 91.7709C89.8118 93.3582 92.0416 94.25 94.3667 94.25C96.6917 94.25 98.9216 93.3582 100.566 91.7709C102.21 90.1835 103.133 88.0306 103.133 85.7857ZM234.633 94.25C236.958 94.25 239.188 93.3582 240.832 91.7709C242.476 90.1835 243.4 88.0306 243.4 85.7857C243.4 83.5408 242.476 81.3879 240.832 79.8006C239.188 78.2132 236.958 77.3214 234.633 77.3214C232.308 77.3214 230.078 78.2132 228.434 79.8006C226.79 81.3879 225.867 83.5408 225.867 85.7857C225.867 88.0306 226.79 90.1835 228.434 91.7709C230.078 93.3582 232.308 94.25 234.633 94.25ZM173.267 68.8571C173.267 66.6123 172.343 64.4594 170.699 62.872C169.055 61.2846 166.825 60.3929 164.5 60.3929C162.175 60.3929 159.945 61.2846 158.301 62.872C156.657 64.4594 155.733 66.6123 155.733 68.8571C155.733 71.102 156.657 73.2549 158.301 74.8423C159.945 76.4297 162.175 77.3214 164.5 77.3214C166.825 77.3214 169.055 76.4297 170.699 74.8423C172.343 73.2549 173.267 71.102 173.267 68.8571ZM33 178.893C33 164.874 44.7802 153.5 59.3 153.5H269.7C284.22 153.5 296 164.874 296 178.893C296 192.912 284.22 204.286 269.7 204.286H59.3C44.7802 204.286 33 192.912 33 178.893ZM41.7667 229.679C41.7667 225.023 45.7117 221.214 50.5333 221.214H278.467C283.288 221.214 287.233 225.023 287.233 229.679V238.143C287.233 256.817 271.508 272 252.167 272H76.8333C57.4919 272 41.7667 256.817 41.7667 238.143V229.679Z" fill="#FCBA11"/>
</svg>
