<svg width="216" height="40" viewBox="0 0 216 40" fill="none" xmlns="http://www.w3.org/2000/svg">
<path d="M3.75833 15.4286C2.41667 15.4286 1.33333 14.3839 1.33333 13.0902C1.33333 12.9375 1.35 12.7929 1.38333 12.6402C1.825 10.9527 5.23333 0 20 0C34.7667 0 38.175 10.9527 38.6167 12.6402C38.6583 12.7929 38.6667 12.9375 38.6667 13.0902C38.6667 14.3839 37.5833 15.4286 36.2417 15.4286H3.75833ZM10.6667 7.71429C10.6667 7.37329 10.5262 7.04627 10.2761 6.80515C10.0261 6.56403 9.68696 6.42857 9.33333 6.42857C8.97971 6.42857 8.64057 6.56403 8.39052 6.80515C8.14048 7.04627 8 7.37329 8 7.71429C8 8.05528 8.14048 8.3823 8.39052 8.62342C8.64057 8.86454 8.97971 9 9.33333 9C9.68696 9 10.0261 8.86454 10.2761 8.62342C10.5262 8.3823 10.6667 8.05528 10.6667 7.71429ZM30.6667 9C31.0203 9 31.3594 8.86454 31.6095 8.62342C31.8595 8.3823 32 8.05528 32 7.71429C32 7.37329 31.8595 7.04627 31.6095 6.80515C31.3594 6.56403 31.0203 6.42857 30.6667 6.42857C30.313 6.42857 29.9739 6.56403 29.7239 6.80515C29.4738 7.04627 29.3333 7.37329 29.3333 7.71429C29.3333 8.05528 29.4738 8.3823 29.7239 8.62342C29.9739 8.86454 30.313 9 30.6667 9ZM21.3333 5.14286C21.3333 4.80186 21.1929 4.47484 20.9428 4.23372C20.6928 3.9926 20.3536 3.85714 20 3.85714C19.6464 3.85714 19.3072 3.9926 19.0572 4.23372C18.8071 4.47484 18.6667 4.80186 18.6667 5.14286C18.6667 5.48385 18.8071 5.81088 19.0572 6.05199C19.3072 6.29311 19.6464 6.42857 20 6.42857C20.3536 6.42857 20.6928 6.29311 20.9428 6.05199C21.1929 5.81088 21.3333 5.48385 21.3333 5.14286ZM0 21.8571C0 19.7277 1.79167 18 4 18H36C38.2083 18 40 19.7277 40 21.8571C40 23.9866 38.2083 25.7143 36 25.7143H4C1.79167 25.7143 0 23.9866 0 21.8571ZM1.33333 29.5714C1.33333 28.8643 1.93333 28.2857 2.66667 28.2857H37.3333C38.0667 28.2857 38.6667 28.8643 38.6667 29.5714V30.8571C38.6667 33.6937 36.275 36 33.3333 36H6.66667C3.725 36 1.33333 33.6937 1.33333 30.8571V29.5714Z" fill="#FCBA11"/>
<path d="M45.8846 21.288C46.9086 21.528 47.7006 22.024 48.2606 22.776C48.8366 23.512 49.1246 24.368 49.1246 25.344C49.1246 26.832 48.6286 27.984 47.6366 28.8C46.6606 29.6 45.2526 30 43.4126 30H34.5086V13.008H43.1726C44.9006 13.008 46.2606 13.384 47.2526 14.136C48.2446 14.888 48.7406 15.984 48.7406 17.424C48.7406 18.416 48.4766 19.256 47.9486 19.944C47.4366 20.616 46.7486 21.064 45.8846 21.288ZM39.8366 19.632H41.9006C42.3806 19.632 42.7326 19.536 42.9566 19.344C43.1966 19.152 43.3166 18.856 43.3166 18.456C43.3166 18.04 43.1966 17.736 42.9566 17.544C42.7326 17.336 42.3806 17.232 41.9006 17.232H39.8366V19.632ZM42.2606 25.728C42.7406 25.728 43.0926 25.64 43.3166 25.464C43.5566 25.272 43.6766 24.968 43.6766 24.552C43.6766 23.736 43.2046 23.328 42.2606 23.328H39.8366V25.728H42.2606ZM65.2428 16.464V30H59.9148V27.936C59.4988 28.576 58.9388 29.096 58.2348 29.496C57.5468 29.896 56.7228 30.096 55.7628 30.096C54.2108 30.096 52.9948 29.576 52.1148 28.536C51.2508 27.496 50.8188 26.088 50.8188 24.312V16.464H56.1228V23.64C56.1228 24.28 56.2908 24.792 56.6268 25.176C56.9788 25.544 57.4428 25.728 58.0188 25.728C58.6108 25.728 59.0748 25.544 59.4108 25.176C59.7468 24.792 59.9148 24.28 59.9148 23.64V16.464H65.2428ZM72.9772 18.96C73.5212 18.176 74.1852 17.552 74.9692 17.088C75.7532 16.608 76.5692 16.368 77.4172 16.368V22.056H75.9052C74.8972 22.056 74.1532 22.232 73.6732 22.584C73.2092 22.936 72.9772 23.56 72.9772 24.456V30H67.6492V16.464H72.9772V18.96ZM83.7243 16.296C84.6043 16.296 85.3643 16.48 86.0043 16.848C86.6443 17.2 87.1323 17.688 87.4683 18.312V16.464H92.7723V29.76C92.7723 31.024 92.5403 32.176 92.0763 33.216C91.6123 34.256 90.8603 35.088 89.8203 35.712C88.7963 36.336 87.4763 36.648 85.8603 36.648C83.6843 36.648 81.9563 36.136 80.6763 35.112C79.4123 34.104 78.6923 32.728 78.5163 30.984H83.7483C83.8923 31.688 84.4683 32.04 85.4763 32.04C86.1003 32.04 86.5883 31.88 86.9403 31.56C87.2923 31.24 87.4683 30.64 87.4683 29.76V28.152C87.1323 28.776 86.6443 29.272 86.0043 29.64C85.3643 29.992 84.6043 30.168 83.7243 30.168C82.6683 30.168 81.7163 29.896 80.8683 29.352C80.0203 28.792 79.3483 27.992 78.8523 26.952C78.3723 25.896 78.1323 24.656 78.1323 23.232C78.1323 21.808 78.3723 20.576 78.8523 19.536C79.3483 18.48 80.0203 17.68 80.8683 17.136C81.7163 16.576 82.6683 16.296 83.7243 16.296ZM87.4683 23.232C87.4683 22.512 87.2843 21.952 86.9163 21.552C86.5483 21.152 86.0763 20.952 85.5003 20.952C84.9243 20.952 84.4523 21.152 84.0843 21.552C83.7163 21.952 83.5323 22.512 83.5323 23.232C83.5323 23.952 83.7163 24.512 84.0843 24.912C84.4523 25.312 84.9243 25.512 85.5003 25.512C86.0763 25.512 86.5483 25.312 86.9163 24.912C87.2843 24.512 87.4683 23.952 87.4683 23.232ZM109.493 16.464V30H104.165V27.936C103.749 28.576 103.189 29.096 102.485 29.496C101.797 29.896 100.973 30.096 100.013 30.096C98.4608 30.096 97.2448 29.576 96.3648 28.536C95.5008 27.496 95.0688 26.088 95.0688 24.312V16.464H100.373V23.64C100.373 24.28 100.541 24.792 100.877 25.176C101.229 25.544 101.693 25.728 102.269 25.728C102.861 25.728 103.325 25.544 103.661 25.176C103.997 24.792 104.165 24.28 104.165 23.64V16.464H109.493ZM125.003 23.112C125.003 23.48 124.979 23.832 124.931 24.168H116.363C116.443 25.336 116.931 25.92 117.827 25.92C118.403 25.92 118.819 25.656 119.075 25.128H124.715C124.523 26.088 124.115 26.952 123.491 27.72C122.883 28.472 122.107 29.072 121.163 29.52C120.235 29.952 119.211 30.168 118.091 30.168C116.747 30.168 115.547 29.888 114.491 29.328C113.451 28.768 112.635 27.968 112.043 26.928C111.467 25.872 111.179 24.64 111.179 23.232C111.179 21.824 111.467 20.6 112.043 19.56C112.635 18.504 113.451 17.696 114.491 17.136C115.547 16.576 116.747 16.296 118.091 16.296C119.435 16.296 120.627 16.576 121.667 17.136C122.723 17.68 123.539 18.464 124.115 19.488C124.707 20.512 125.003 21.72 125.003 23.112ZM119.603 21.84C119.603 21.392 119.459 21.056 119.171 20.832C118.883 20.592 118.523 20.472 118.091 20.472C117.147 20.472 116.595 20.928 116.435 21.84H119.603ZM132.016 18.96C132.56 18.176 133.224 17.552 134.008 17.088C134.792 16.608 135.608 16.368 136.456 16.368V22.056H134.944C133.936 22.056 133.192 22.232 132.712 22.584C132.248 22.936 132.016 23.56 132.016 24.456V30H126.688V16.464H132.016V18.96Z" fill="white"/>
<path d="M154.022 13.008V30H148.694V23.376H143.63V30H138.302V13.008H143.63V19.128H148.694V13.008H154.022ZM162.851 30.168C161.491 30.168 160.267 29.888 159.179 29.328C158.091 28.768 157.235 27.968 156.611 26.928C156.003 25.872 155.699 24.64 155.699 23.232C155.699 21.824 156.003 20.6 156.611 19.56C157.235 18.504 158.091 17.696 159.179 17.136C160.267 16.576 161.491 16.296 162.851 16.296C164.211 16.296 165.435 16.576 166.523 17.136C167.611 17.696 168.459 18.504 169.067 19.56C169.691 20.6 170.003 21.824 170.003 23.232C170.003 24.64 169.691 25.872 169.067 26.928C168.459 27.968 167.611 28.768 166.523 29.328C165.435 29.888 164.211 30.168 162.851 30.168ZM162.851 25.56C163.347 25.56 163.763 25.368 164.099 24.984C164.435 24.584 164.603 24 164.603 23.232C164.603 22.464 164.435 21.888 164.099 21.504C163.763 21.104 163.347 20.904 162.851 20.904C162.355 20.904 161.939 21.104 161.603 21.504C161.267 21.888 161.099 22.464 161.099 23.232C161.099 24 161.259 24.584 161.579 24.984C161.915 25.368 162.339 25.56 162.851 25.56ZM186.005 16.464V30H180.677V27.936C180.261 28.576 179.701 29.096 178.997 29.496C178.309 29.896 177.485 30.096 176.525 30.096C174.973 30.096 173.757 29.576 172.877 28.536C172.013 27.496 171.581 26.088 171.581 24.312V16.464H176.885V23.64C176.885 24.28 177.053 24.792 177.389 25.176C177.741 25.544 178.205 25.728 178.781 25.728C179.373 25.728 179.837 25.544 180.173 25.176C180.509 24.792 180.677 24.28 180.677 23.64V16.464H186.005ZM194.435 30.168C193.155 30.168 192.019 29.96 191.027 29.544C190.051 29.128 189.275 28.552 188.699 27.816C188.123 27.08 187.795 26.248 187.715 25.32H192.827C192.891 25.72 193.059 26.016 193.331 26.208C193.619 26.4 193.979 26.496 194.411 26.496C194.683 26.496 194.899 26.44 195.059 26.328C195.219 26.2 195.299 26.048 195.299 25.872C195.299 25.568 195.131 25.352 194.795 25.224C194.459 25.096 193.891 24.952 193.091 24.792C192.115 24.6 191.307 24.392 190.667 24.168C190.043 23.944 189.491 23.56 189.011 23.016C188.547 22.472 188.315 21.72 188.315 20.76C188.315 19.928 188.531 19.176 188.963 18.504C189.411 17.816 190.067 17.28 190.931 16.896C191.795 16.496 192.843 16.296 194.075 16.296C195.899 16.296 197.323 16.744 198.347 17.64C199.387 18.536 200.011 19.704 200.219 21.144H195.491C195.411 20.776 195.243 20.496 194.987 20.304C194.731 20.096 194.387 19.992 193.955 19.992C193.683 19.992 193.475 20.048 193.331 20.16C193.187 20.256 193.115 20.408 193.115 20.616C193.115 20.888 193.283 21.096 193.619 21.24C193.955 21.368 194.491 21.504 195.227 21.648C196.203 21.84 197.027 22.056 197.699 22.296C198.371 22.536 198.955 22.952 199.451 23.544C199.947 24.12 200.195 24.92 200.195 25.944C200.195 26.744 199.963 27.464 199.499 28.104C199.035 28.744 198.363 29.248 197.483 29.616C196.619 29.984 195.603 30.168 194.435 30.168ZM215.413 23.112C215.413 23.48 215.389 23.832 215.341 24.168H206.773C206.853 25.336 207.341 25.92 208.237 25.92C208.813 25.92 209.229 25.656 209.485 25.128H215.125C214.933 26.088 214.525 26.952 213.901 27.72C213.293 28.472 212.517 29.072 211.573 29.52C210.645 29.952 209.621 30.168 208.501 30.168C207.157 30.168 205.957 29.888 204.901 29.328C203.861 28.768 203.045 27.968 202.453 26.928C201.877 25.872 201.589 24.64 201.589 23.232C201.589 21.824 201.877 20.6 202.453 19.56C203.045 18.504 203.861 17.696 204.901 17.136C205.957 16.576 207.157 16.296 208.501 16.296C209.845 16.296 211.037 16.576 212.077 17.136C213.133 17.68 213.949 18.464 214.525 19.488C215.117 20.512 215.413 21.72 215.413 23.112ZM210.013 21.84C210.013 21.392 209.869 21.056 209.581 20.832C209.293 20.592 208.933 20.472 208.501 20.472C207.557 20.472 207.005 20.928 206.845 21.84H210.013Z" fill="#FCBA11"/>
</svg>
